:SAMPLES-PER-SECOND 30
:FULLY-SPECIFIED
:DEGREES
16
root  -65.9971 41.5641 -0.704497 112.686 87.8839 113.409
RightUpLeg  2.33544 -9.40277 -6.64271
RightLeg  6.80692 -5.06967 3.61227
RightFoot  -5.68577 0.0533941 -1.91957
RightToes  -2.9104e-010 0 -3.6325e-017
Spine  4.63589 0.467215 -1.07492
Spine1  1.55058 0.593213 -0.101406
HEad  -0.788384 3.52255 0.0587271
LeftShoulder1  1.87108 -5.43938 -13.9526
LeftArm  -20.1989 12.4047 -5.36171
LeftForeArm  9.00665 -1.29208 -0.141972
LeftHand  -0.244104 0.0205437 5.32207
RightShoulder  0.759983 0.865248 10.1276
RightArm  -26.2611 -3.71006 4.31668
RightForeArm  -1.11461 2.11091 1.32421
RightHand  -1.12518 3.85757 -14.3218
LeftUpLeg  1.07819 4.39979 0.9048
LeftLeg  1.3943 19.1522 -4.43036
LeftFoot  -1.72226 -0.0247713 0.41778
LeftToes  1.09107e-011 -5.80176e-011 5.60941e-012
17
root  -65.9637 41.539 -0.762537 111.591 87.9695 112.278
RightUpLeg  2.27836 -9.49015 -6.72427
RightLeg  7.01231 -4.86058 3.64838
RightFoot  -6.07819 0.0316046 -1.57803
RightToes  -2.9104e-010 0 -3.6325e-017
Spine  4.76198 0.540603 -0.787077
Spine1  1.5776 0.706 -0.250085
HEad  -0.527619 3.66643 0.00992752
LeftShoulder1  1.908 -5.48436 -14.2896
LeftArm  -20.8621 12.5797 -5.51912
LeftForeArm  9.36232 -1.95797 0.0492467
LeftHand  -0.244104 0.0205437 5.32207
RightShoulder  0.753042 0.749619 10.4683
RightArm  -26.2946 -3.74294 4.29578
RightForeArm  -1.53682 2.61054 1.42756
RightHand  -1.16026 3.84879 -14.7679
LeftUpLeg  0.582628 4.33638 0.824179
LeftLeg  2.6459 19.3575 -3.90318
LeftFoot  -2.83406 0.0105087 0.0856163
LeftToes  1.09107e-011 -5.80176e-011 5.60941e-012
18
root  -65.9112 41.5052 -0.845662 104.581 88.0046 105.283
RightUpLeg  2.22954 -9.75948 -7.04782
RightLeg  7.3891 -4.25871 3.72282
RightFoot  -6.5599 -0.00354336 -0.979339
RightToes  -2.9104e-010 0 -3.6325e-017
Spine  4.83571 0.604003 -0.65214
Spine1  1.78166 0.784259 -0.271716
HEad  -0.382118 3.86404 -0.200397
LeftShoulder1  1.92469 -5.31488 -14.9409
LeftArm  -21.8357 13.2363 -5.92463
LeftForeArm  9.78737 -3.77249 0.19019
LeftHand  -0.244104 0.0205437 5.32207
RightShoulder  0.738551 0.638076 10.6089
RightArm  -26.6702 -3.76474 5.07663
RightForeArm  -2.46108 3.52933 1.56307
RightHand  -1.29941 4.17901 -15.9343
LeftUpLeg  0.222296 4.39828 0.601829
LeftLeg  3.85944 19.6468 -3.37139
LeftFoot  -4.08011 0.0569284 -0.514723
LeftToes  1.09107e-011 -5.80176e-011 5.60941e-012
19
root  -65.8283 41.4643 -0.960062 94.0766 87.9483 94.9092
RightUpLeg  2.29235 -10.1566 -7.55325
RightLeg  7.95014 -3.37356 3.76229
RightFoot  -7.2733 -0.0399974 -0.257961
RightToes  -2.9104e-010 0 -3.6325e-017
Spine  4.82647 0.641604 -0.476372
Spine1  2.24812 0.871323 -0.439279
HEad  -0.293435 3.95174 -0.51233
LeftShoulder1  1.98675 -5.21146 -15.9939
LeftArm  -23.2558 14.4864 -6.57739
LeftForeArm  10.3288 -6.83556 0.293615
LeftHand  -0.244104 0.0205437 5.32207
RightShoulder  0.780202 0.787317 10.995
RightArm  -26.8606 -4.3393 6.35817
RightForeArm  -4.47354 5.51394 2.01907
RightHand  -1.55489 4.90087 -17.6867
LeftUpLeg  0.108004 4.59721 0.23238
LeftLeg  4.93731 19.8514 -2.80968
LeftFoot  -5.32882 0.0951449 -1.20105
LeftToes  1.09107e-011 -5.80176e-011 5.60941e-012
20
root  -65.7073 41.4194 -1.10221 84.136 87.8197 85.2241
RightUpLeg  2.53245 -10.53 -8.08985
RightLeg  8.53847 -2.31265 3.68606
RightFoot  -8.23314 -0.0743887 0.699364
RightToes  -2.9104e-010 0 -3.6325e-017
Spine  4.71146 0.695308 -0.17594
Spine1  2.99832 1.02233 -0.827348
HEad  -0.127817 3.9993 -0.819137
LeftShoulder1  2.19895 -5.44332 -17.9159
LeftArm  -25.4283 15.9589 -7.11565
LeftForeArm  11.4527 -10.7147 0.304075
LeftHand  -0.244104 0.0205437 5.32207
RightShoulder  0.868492 1.06656 11.9093
RightArm  -26.6016 -5.54315 8.00466
RightForeArm  -7.15866 8.87229 2.90101
RightHand  -1.86689 5.6619 -19.7237
LeftUpLeg  0.195201 4.79141 -0.229197
LeftLeg  5.97951 19.9722 -2.19382
LeftFoot  -6.57055 0.103881 -1.5354
LeftToes  1.09107e-011 -5.80176e-011 5.60941e-012
21
root  -65.545 41.3728 -1.26441 78.2208 87.6683 79.6763
RightUpLeg  2.97316 -10.8985 -8.63717
RightLeg  9.06536 -1.27596 3.50686
RightFoot  -9.14796 -0.0993751 1.94489
RightToes  -2.9104e-010 0 -3.6325e-017
Spine  4.52825 0.736442 0.119938
Spine1  3.97335 1.16583 -1.25236
HEad  0.197042 4.0175 -0.956194
LeftShoulder1  2.5504 -5.88352 -20.706
LeftArm  -28.8717 17.2954 -7.55362
LeftForeArm  14.1731 -14.766 -0.27514
LeftHand  -0.244104 0.0205437 5.32207
RightShoulder  0.969011 1.29206 13.2412
RightArm  -25.7404 -7.07069 10.203
RightForeArm  -9.09823 13.1846 3.94873
RightHand  -2.10926 6.06478 -21.4491
LeftUpLeg  0.480397 4.95442 -0.716752
LeftLeg  6.96883 19.9473 -1.61328
LeftFoot  -7.82368 0.090481 -1.40674
LeftToes  1.09107e-011 -5.80176e-011 5.60941e-012
22
root  -65.3453 41.3183 -1.43924 78.3924 87.5627 80.334
RightUpLeg  3.53237 -11.4626 -9.19684
RightLeg  9.79003 -0.509449 3.21449
RightFoot  -9.863 -0.104336 2.86505
RightToes  -2.9104e-010 0 -3.6325e-017
Spine  4.40723 0.682534 0.300234
Spine1  5.00418 1.18901 -1.57297
HEad  0.71684 3.84601 -0.76665
LeftShoulder1  2.91277 -6.27055 -23.5029
LeftArm  -32.4522 18.5085 -8.63163
LeftForeArm  17.8682 -18.2785 -1.61634
LeftHand  -0.244104 0.0205437 5.32207
RightShoulder  1.10533 1.59705 14.8454
RightArm  -23.6582 -8.90336 12.9463
RightForeArm  -9.47807 17.8024 4.74749
RightHand  -2.16797 6.03633 -22.0697
LeftUpLeg  1.02774 5.16482 -1.12404
LeftLeg  7.76633 19.6063 -1.22185
LeftFoot  -9.02598 0.0803609 -1.30592
LeftToes  1.09107e-011 -5.80176e-011 5.60941e-012
23
root  -65.1234 41.2372 -1.61931 82.7494 87.4969 85.2485
RightUpLeg  3.86902 -12.4051 -9.63562
RightLeg  11.2069 0.287586 2.62119
RightFoot  -10.6677 -0.0905584 3.01787
RightToes  -2.9104e-010 0 -3.6325e-017
Spine  4.48106 0.55903 0.334609
Spine1  5.87278 1.10954 -1.79771
HEad  1.34245 3.48806 -0.390172
LeftShoulder1  3.24475 -6.64341 -25.778
LeftArm  -34.0022 19.6121 -10.7174
LeftForeArm  20.3909 -20.5399 -2.7496
LeftHand  -0.244104 0.0205437 5.32207
RightShoulder  1.33819 2.20961 16.7549
RightArm  -20.3908 -11.2519 15.8235
RightForeArm  -8.25932 22.2967 5.27157
RightHand  -2.03624 5.66038 -21.4466
LeftUpLeg  1.70886 5.56787 -1.37559
LeftLeg  8.50787 18.8647 -1.02278
LeftFoot  -10.1307 0.0782788 -1.68366
LeftToes  1.09107e-011 -5.80176e-011 5.60941e-012
24
root  -64.9102 41.1077 -1.79614 83.4518 87.3536 86.4673
RightUpLeg  3.3225 -13.2347 -9.77011
RightLeg  13.9277 1.40102 1.49814
RightFoot  -11.6718 -0.0681413 3.34121
RightToes  -2.9104e-010 0 -3.6325e-017
Spine  4.84657 0.531884 0.134551
Spine1  6.48256 1.06526 -1.90694
HEad  1.73264 3.25543 -0.274709
LeftShoulder1  3.66543 -7.18849 -28.1545
LeftArm  -33.6357 20.2391 -13.033
LeftForeArm  21.3335 -20.9692 -2.94598
LeftHand  -0.244104 0.0205437 5.32207
RightShoulder  1.68859 3.11362 19.0287
RightArm  -16.8394 -13.8644 18.4563
RightForeArm  -5.47953 26.2762 5.9152
RightHand  -1.78798 4.91833 -20.224
LeftUpLeg  2.18413 6.25941 -1.53295
LeftLeg  9.64126 18.0176 -0.857321
LeftFoot  -11.2736 0.0689084 -2.38565
LeftToes  1.09107e-011 -5.80176e-011 5.60941e-012
25
root  -64.7268 40.9361 -1.96278 75.1456 87.0041 78.7004
RightUpLeg  1.42589 -11.6444 -9.63959
RightLeg  18.6568 0.816832 0.0376773
RightFoot  -12.0826 -0.0508816 4.9922
RightToes  -2.9104e-010 0 -3.6325e-017
Spine  5.61723 0.674699 -0.387066
Spine1  7.06466 1.11264 -1.89157
HEad  1.46103 3.39617 -0.615809
LeftShoulder1  4.24944 -7.86937 -31.2925
LeftArm  -32.0127 19.8653 -14.8091
LeftForeArm  20.4852 -19.2729 -2.21349
LeftHand  -0.244104 0.0205437 5.32207
RightShoulder  2.12332 4.08915 21.6582
RightArm  -12.9923 -15.941 20.8971
RightForeArm  -1.71316 29.2566 6.44538
RightHand  -1.46807 3.81753 -18.6173
LeftUpLeg  2.49927 7.14462 -1.73607
LeftLeg  11.203 17.4786 -0.657275
LeftFoot  -12.6036 0.0421166 -3.03114
LeftToes  1.09107e-011 -5.80176e-011 5.60941e-012
26
root  -64.5531 40.7591 -2.11605 63.4097 86.379 67.7001
RightUpLeg  -1.67498 -7.18832 -9.65264
RightLeg  25.7639 -2.37878 -1.49462
RightFoot  -10.8097 -0.110351 7.25119
RightToes  -2.9104e-010 0 -3.6325e-017
Spine  6.72881 0.842166 -1.129
Spine1  8.01571 1.14962 -1.87123
HEad  0.44896 3.83818 -1.06328
LeftShoulder1  4.92141 -8.54819 -34.7554
LeftArm  -28.9582 18.4061 -16.3415
LeftForeArm  16.6797 -15.6563 -0.948738
LeftHand  -0.244104 0.0205437 5.32207
RightShoulder  2.58893 4.93333 24.5411
RightArm  -9.12025 -16.9163 23.4766
RightForeArm  3.24849 30.6833 6.53217
RightHand  -1.0761 2.51612 -15.9033
LeftUpLeg  3.08284 7.96015 -2.04468
LeftLeg  12.6675 17.3378 -0.473341
LeftFoot  -14.0228 0.00152705 -3.52877
LeftToes  1.09107e-011 -5.80176e-011 5.60941e-012
